<?xml version="1.0" encoding="utf-8"?>
<!-- Generator: Adobe Illustrator 24.0.3, SVG Export Plug-In . SVG Version: 6.00 Build 0)  -->
<svg version="1.1" id="Layer_1" xmlns="http://www.w3.org/2000/svg" xmlns:xlink="http://www.w3.org/1999/xlink" x="0px" y="0px"
	 viewBox="0 0 800 768" style="enable-background:new 0 0 800 768;" xml:space="preserve">
<style type="text/css">
	.st0{fill:#0C0C0C;}
</style>
<g>
	<g>
		<path class="st0" d="M256.92,539.6l11.48-1.64c0,0,2.15-0.61,4.31-3.59c2.3-3.17,2.84-7.89,2.84-7.89l-0.27-22.15
			c-0.04-3.19-0.64-6.36-1.91-9.29c-0.74-1.71-1.75-3.48-3.12-4.93c-2.49-2.65-7.38-0.97-7.38-0.97l-7.98,1.49
			c0,0-2.64,0.57-3.76,1.68c-1.13,1.11-0.93,2.94-0.93,2.94l1.27,41.67c0,0,0.09,1.52,1.49,2.22
			C254.38,539.83,256.92,539.6,256.92,539.6z"/>
		<path class="st0" d="M272.05,589.09c-1.08-0.7-2.33-1.07-3.62-1.07h-12.01c-1.15,0-1.8,0.72-2.17,1.44
			c-0.32,0.63-0.45,1.35-0.43,2.06c0.15,5.45,1.24,45.53,1.65,49.28c0.45,4.03,3.58,4.36,3.58,4.36s5.93,1.45,9.28,1.12
			c3.35-0.34,12.64,4.25,13.08-26.06C281.73,598.53,275.58,591.4,272.05,589.09z"/>
	</g>
	<path class="st0" d="M608.96,157.38c0.89,12.3-15.88,119.77-15.88,119.77c-0.34,10.06,9.17,17.89,9.17,17.89
		c-18.79,0.67-34.74,29.71-34.74,29.71c2.98-70.75-20.65-106.01-20.65-106.01c-1.79-5.96,10.44-5.67,10.44-5.67
		c20.35-1.12,18.27-18.94,18.27-18.94c-19.68-114.21-67.84-142.1-67.84-142.1c-8.95,65.16-10.81,118.65-10.81,118.65
		c0.34,8.72,8.39,15.43,8.39,15.43c16.44,13.75,3.02,17.78,3.02,17.78c-34.22,12.86-41.9,57.26-41.9,57.26
		c-2.98-64.79-45.1-87-45.1-87h11.18c14.98,0,14.54-18.49,14.54-18.49C432.12,30.12,398.72,2.68,398.72,2.68
		c-37.57,37.57-49.54,153.28-49.54,153.28c1.19,18.04,15.68,18.3,15.68,18.3l9.48,0.01c-43.39,26.39-44.62,86.89-44.62,86.89
		c-7.42-34.82-27.02-48.31-27.02-48.31c-3.67-3.67-17.74-9.1-19.23-11.48c-1.49-2.39-2.39-6.78,4.77-12.45
		c7.16-5.67,10.44-13.57,10.88-16.55c0.45-2.98,0.3-14.31-0.3-23.26c-0.6-8.95-10.14-97.51-10.14-97.51
		c-45.03,31.46-67.54,130.02-67.84,139.71c-0.3,9.69,3.02,14.57,3.65,15.36c0.47,0.58,5.82,6.04,13.49,6.49
		c7.68,0.45,11.48,1.86,11.26,4.17c-0.22,2.31-3.06,7.83-3.06,7.83c-19.91,27.29-16.33,101.09-16.33,101.09
		c-12.3-24.15-30.64-29.97-30.64-29.97l-5.67-0.15l10.59-10.29c-5.37-18.94-17.15-128.08-17.15-128.08
		c-50.4,39.36-55.09,148.36-54.2,158.87c0.89,10.51,11.26,16.77,11.26,16.77c-12.23,86.18,27.73,105.42,27.73,105.42
		c8.65,6.11,18.19,5.22,18.19,5.22s-2.69,2.36-17.3,8.5c-15.34,6.45-13.72,19.09-13.72,19.09
		c7.16,178.03,101.09,243.93,101.09,243.93c12.97,6.26,28.93,8.95,49.05,9.69c20.13,0.75,26.84-4.47,26.84-4.47l0.15,21.62
		c0,0,1.04,14.02,18.79,18.49s59.27,2.83,59.27,2.83c42.49,0,40.59-18.12,40.59-18.12l0.63-25.87c0,0,9.54,10.44,19.23,15.66
		c9.69,5.22,22.48,4.42,22.48,4.42c28.79,0.02,64.65-36.35,93.97-73.01c31.01-38.77,41.71-89.16,41.71-89.16
		c1.45-5.59-0.56-8.39,0.34-14.43c0.89-6.04,6.04-13.98,6.04-13.98c6.49-23.71,4.4-92.37,4.4-92.37c-8.8-11.93-21.17-17-21.17-17
		c46.07-28.18,31.42-106.35,31.42-106.35l10.57-9.56C667.05,198.06,608.96,157.38,608.96,157.38z M521.51,90.06
		c0,0,30.19,63.29,32.65,103.78c0,0-14.76-21.69-36.68-26.61C517.48,167.22,520.39,141.95,521.51,90.06z M482.37,313.27
		c2.24-69.78,25.05-85.88,34.89-87.23c0,0,26.39-3.13,30.19,82.08c0,0,2.46,62.85-34.67,73.14
		C512.78,381.26,480.13,383.05,482.37,313.27z M369.87,153.8c6.93-77.61,28.85-121.44,28.85-121.44
		c21.92,41.15,28.85,121.44,28.85,121.44C396.71,143.06,369.87,153.8,369.87,153.8z M314.33,319.08c0,0,1.79,65.61-28.63,62.18
		c-30.42-3.43-36.68-53.53-36.08-72.62c0.6-19.09,6.86-79.02,30.12-81.26C279.74,227.38,310.75,224.25,314.33,319.08z
		 M243.06,194.73c3.8-48.09,32.88-103.1,32.88-103.1c-1.34,16.1,3.8,77.16,3.8,77.16C264.75,168.34,243.06,194.73,243.06,194.73z
		 M178.2,204.57c-2.24,23.48,6.04,70.9,6.04,70.9c-11.63,7.16-31.09,38.47-31.09,38.47C147.78,262.5,178.2,204.57,178.2,204.57z
		 M162.32,355.98c0,0,1.12-36.9,23.71-39.81c0,0,28.4-0.67,37.57,67.99c0,0,4.03,38.02-28.18,39.81
		C195.42,423.97,162.54,425.32,162.32,355.98z M320.33,702.73c-5.81,2.19-12.14,2.62-18.24,1.44l-18-3.47
		c-8.07-1.55-15.48-5.51-21.28-11.33c-22.82-22.89-76.92-89.89-82.67-214.93c0,0,69.18-39.74,121.97-45.77
		c52.78-6.04,41.38,93.26,32.88,106.46s-16.44,18.51-16.44,18.51s-1.34,2.85,0.06,5.93c1.4,3.08,29.8,12.1,29.8,78.22
		C348.4,683.54,334.27,697.48,320.33,702.73z M440.32,440.75c0,0-7.28,7.06-8.61,10.74c-1.33,3.68-1.01,15.88-1.01,15.88
		l-1.79,211.13c0,0,0.18,6.8,1.62,10.4c1.44,3.6,5.09,6.37,5.09,6.37L434.73,740c0,0-22.22,3.88-40.18,3.88
		c-14.84,0-38.43-4.88-38.43-4.88l0.11-44.17c0,0,4.17-3.52,5.31-6.49c1.08-2.82,1.4-10.29,1.4-10.29l-0.89-215.71
		c0,0-0.21-8.48-2.39-13.61c-2.17-5.13-7.23-9.1-7.23-9.1v-41.15c0,0,44.73-8.05,87.9,0V440.75z M398.94,377.68
		c0,0-41.45,7.04-48.83-91.03c0,0-0.6-90.8,48.83-95.72c0,0,46.59-1.27,48.68,92.97C447.63,283.89,451.5,370.52,398.94,377.68z
		 M623.72,467.14c2.24,30.86-5.93,77.05-5.93,77.05c-29.86-7.6-73.47-15.21-73.47-15.21s1.23-27.4,1.23-30.64
		c0-3.24-2.8-16.33-14.09-16.33s-10.74,13.75-10.74,13.75l-5.18,150.45c0,0-1.79,14.16,11.11,14.16s14.24-14.76,14.24-14.76
		s1.49-32.5,1.49-34.96c0-2.46-2.16-2.61-2.16-2.61l-8.2-0.3l1.64-53.08c29.22,0.45,79.77,10.14,79.77,10.14
		c-7.16,32.5-32.41,80.49-42.79,92.89c-6.47,7.73-32.36,38.47-54.72,51.14c-11.8,6.69-20.28,10.74-20.28,10.74
		s-16.31-3.05-27.58-18.64c-10.64-14.71-16.27-41.49-16.85-57.7c-1.19-33.4-0.89-145.52,4.17-171.47
		c5.07-25.94,14.61-49.65,54.12-52.19C549.02,417.04,623.72,467.14,623.72,467.14z M635.79,364.93
		c-1.12,48.31-26.67,60.61-39.36,56.98c0,0-25.72-4.19-22.81-41.77c2.91-37.57,25.94-65.53,37.13-65.53
		C610.74,314.61,636.91,316.62,635.79,364.93z M644.07,314.61c0,0-16.55-28.63-30.86-39.36c0,0,8.72-47.64,6.26-70.67
		C619.47,204.57,645.86,252.21,644.07,314.61z"/>
</g>
</svg>
